<svg width="30" height="30" viewBox="0 0 26 26" fill="none" xmlns="http://www.w3.org/2000/svg">
<path fill-rule="evenodd" clip-rule="evenodd" d="M12.9489 5.75C10.8778 5.75 9.1989 7.42893 9.1989 9.5C9.1989 11.5711 10.8778 13.25 12.9489 13.25C15.02 13.25 16.6989 11.5711 16.6989 9.5C16.6989 7.42893 15.02 5.75 12.9489 5.75ZM10.4489 9.5C10.4489 8.11929 11.5682 7 12.9489 7C14.3296 7 15.4489 8.11929 15.4489 9.5C15.4489 10.8807 14.3296 12 12.9489 12C11.5682 12 10.4489 10.8807 10.4489 9.5Z" fill="#0278AB"/>
<path d="M8.8917 18.4845C9.54118 16.88 11.1138 15.75 12.9489 15.75C14.784 15.75 16.3566 16.88 17.0061 18.4845C17.1356 18.8045 17.5 18.9589 17.82 18.8293C18.1399 18.6998 18.2943 18.3354 18.1648 18.0155C17.3308 15.9552 15.3106 14.5 12.9489 14.5C10.5873 14.5 8.56701 15.9552 7.73302 18.0155C7.60351 18.3354 7.75789 18.6998 8.07785 18.8293C8.39781 18.9589 8.76218 18.8045 8.8917 18.4845Z" fill="#0278AB"/>
<path fill-rule="evenodd" clip-rule="evenodd" d="M25.5 13.25C25.5 20.1536 19.9036 25.75 13 25.75C6.09644 25.75 0.5 20.1536 0.5 13.25C0.5 6.34644 6.09644 0.75 13 0.75C19.9036 0.75 25.5 6.34644 25.5 13.25ZM24.25 13.25C24.25 19.4632 19.2132 24.5 13 24.5C6.7868 24.5 1.75 19.4632 1.75 13.25C1.75 7.0368 6.7868 2 13 2C19.2132 2 24.25 7.0368 24.25 13.25Z" fill="#0278AB"/>
</svg>
