<svg width="30" height="30" viewBox="0 0 30 30" fill="none" xmlns="http://www.w3.org/2000/svg">
<circle cx="15" cy="15" r="14.25" stroke="#0278AB" stroke-width="1.5"/>
<path fill-rule="evenodd" clip-rule="evenodd" d="M8 10H10V8C10 6.89543 10.8954 6 12 6H18C19.1046 6 20 6.89543 20 8V10H22C23.1046 10 24 10.8954 24 12V18C24 19.1046 23.1046 20 22 20H21.5C21.2239 20 21 19.7761 21 19.5C21 19.2239 21.2239 19 21.5 19H22C22.5523 19 23 18.5523 23 18V12C23 11.4477 22.5523 11 22 11H8C7.44772 11 7 11.4477 7 12V18C7 18.5523 7.44772 19 8 19H8.5C8.77614 19 9 19.2239 9 19.5C9 19.7761 8.77614 20 8.5 20H8C6.89543 20 6 19.1046 6 18V12C6 10.8954 6.89543 10 8 10ZM12 7C11.4477 7 11 7.44772 11 8V10H19V8C19 7.44772 18.5523 7 18 7H12Z" fill="#0278AB"/>
<path d="M8.5 12C8.22386 12 8 12.2239 8 12.5C8 12.7761 8.22386 13 8.5 13H9.5C9.77614 13 10 12.7761 10 12.5C10 12.2239 9.77614 12 9.5 12H8.5Z" fill="#0278AB"/>
<path d="M12.5 18.5C12.2239 18.5 12 18.7239 12 19C12 19.2761 12.2239 19.5 12.5 19.5H17.5C17.7761 19.5 18 19.2761 18 19C18 18.7239 17.7761 18.5 17.5 18.5H12.5Z" fill="#0278AB"/>
<path d="M12.5 20.5C12.2239 20.5 12 20.7239 12 21C12 21.2761 12.2239 21.5 12.5 21.5H17.5C17.7761 21.5 18 21.2761 18 21C18 20.7239 17.7761 20.5 17.5 20.5H12.5Z" fill="#0278AB"/>
<path fill-rule="evenodd" clip-rule="evenodd" d="M9.5 16C9.22386 16 9 16.2239 9 16.5C9 16.7761 9.22386 17 9.5 17H10V22C10 23.1046 10.8954 24 12 24H18C19.1046 24 20 23.1046 20 22V17H20.5C20.7761 17 21 16.7761 21 16.5C21 16.2239 20.7761 16 20.5 16H9.5ZM12 23C11.4477 23 11 22.5523 11 22V17H19V22C19 22.5523 18.5523 23 18 23H12Z" fill="#0278AB"/>
</svg>
