<svg width="30" height="30" viewBox="0 0 30 30" fill="none" xmlns="http://www.w3.org/2000/svg">
<path fill-rule="evenodd" clip-rule="evenodd" d="M4.0625 5C3.19955 5 2.5 5.69956 2.5 6.5625V23.4375C2.5 24.3004 3.19956 25 4.0625 25H13.125C13.4702 25 13.75 24.7202 13.75 24.375C13.75 24.0298 13.4702 23.75 13.125 23.75H4.0625C3.88991 23.75 3.75 23.6101 3.75 23.4375V10H13.125C13.4702 10 13.75 9.72018 13.75 9.375V6.5625C13.75 5.69956 13.0504 5 12.1875 5H4.0625ZM12.5 8.75H3.75V6.5625C3.75 6.38991 3.88991 6.25 4.0625 6.25H12.1875C12.3601 6.25 12.5 6.38991 12.5 6.5625V8.75Z" fill="#0278AB"/>
<path fill-rule="evenodd" clip-rule="evenodd" d="M10 12.8125C10 11.9496 10.6996 11.25 11.5625 11.25H25.9375C26.8004 11.25 27.5 11.9496 27.5 12.8125V20.9375C27.5 21.8004 26.8004 22.5 25.9375 22.5H19.375V23.75H21.875C22.2202 23.75 22.5 24.0298 22.5 24.375C22.5 24.7202 22.2202 25 21.875 25H15.625C15.2798 25 15 24.7202 15 24.375C15 24.0298 15.2798 23.75 15.625 23.75H18.125V22.5H11.5625C10.6996 22.5 10 21.8004 10 20.9375V12.8125ZM25.9375 21.25H11.5625C11.3899 21.25 11.25 21.1101 11.25 20.9375V12.8125C11.25 12.6399 11.3899 12.5 11.5625 12.5H25.9375C26.1101 12.5 26.25 12.6399 26.25 12.8125V20.9375C26.25 21.1101 26.1101 21.25 25.9375 21.25Z" fill="#0278AB"/>
<path d="M5.625 15C5.27982 15 5 15.2798 5 15.625C5 15.9702 5.27982 16.25 5.625 16.25H8.125C8.47018 16.25 8.75 15.9702 8.75 15.625C8.75 15.2798 8.47018 15 8.125 15H5.625Z" fill="#0278AB"/>
<path d="M5 18.125C5 17.7798 5.27982 17.5 5.625 17.5H8.125C8.47018 17.5 8.75 17.7798 8.75 18.125C8.75 18.4702 8.47018 18.75 8.125 18.75H5.625C5.27982 18.75 5 18.4702 5 18.125Z" fill="#0278AB"/>
<path d="M5.625 20C5.27982 20 5 20.2798 5 20.625C5 20.9702 5.27982 21.25 5.625 21.25H8.125C8.47018 21.25 8.75 20.9702 8.75 20.625C8.75 20.2798 8.47018 20 8.125 20H5.625Z" fill="#0278AB"/>
</svg>
