<svg width="30" height="30" viewBox="0 0 30 30" fill="none" xmlns="http://www.w3.org/2000/svg">
<path d="M26.25 15C26.25 12.75 24.625 11 22.5 10.625C22.125 6.875 19 3.75 15 3.75C11 3.75 7.875 6.875 7.5 10.625C5.375 11 3.75 12.75 3.75 15C3.75 17.375 5.75 19.375 8.125 19.375H8.75V11.875V11.25C8.75 7.75 11.5 5 15 5C18.5 5 21.25 7.75 21.25 11.25V11.875V18.75V19.375C21.25 21.75 19.625 23.75 17.5 23.75H17.375C17.125 23 16.375 22.5 15.625 22.5C14.625 22.5 13.75 23.375 13.75 24.375C13.75 25.375 14.625 26.25 15.625 26.25C16.5 26.25 17.125 25.75 17.375 25H17.5C20.25 25 22.5 22.5 22.5 19.375V19.25C24.625 19 26.25 17.25 26.25 15ZM7.5 18C6.125 17.75 5 16.5 5 15C5 13.5 6.125 12.25 7.5 12V18ZM22.5 18V12C23.875 12.25 25 13.5 25 15C25 16.5 23.875 17.75 22.5 18Z" fill="#0278AB"/>
</svg>
