<?xml version="1.0" encoding="UTF-8"?>
<svg width="1014" height="1012" version="1.1" viewBox="-10 0 1014 1012" xmlns="http://www.w3.org/2000/svg">
 <path d="m498 1012h-15l103-284h143q19 0 37-12.5t24-30.5l111-309q15-39-4.5-65.5t-59.5-26.5h-198l-164 457-94 258q-84-20-156-66-71-46-123.5-111t-81.5-146q-30-80-30-170 0-87 28-166 28-78 78-142t118-110 148-68l-96 266-163 442h107l137-376h81l-137 376h107l128-350q14-38-5-65t-59-27h-90l103-286h23q105 0 197 40t160.5 108.5 108.5 160.5 40 197-40 197-108.5 160.5-160.5 108.5-197 40zm305-662h-81l-113 310h81z" fill="#024ad8"/>
</svg>
