<svg width="30" height="30" viewBox="0 0 30 30" fill="none" xmlns="http://www.w3.org/2000/svg">
<path d="M6.25 21.25H23.75C25.125 21.25 26.25 20.125 26.25 18.75V8.75C26.25 7.375 25.125 6.25 23.75 6.25H6.25C4.875 6.25 3.75 7.375 3.75 8.75V18.75C3.75 20.125 4.875 21.25 6.25 21.25ZM5 8.75C5 8 5.5 7.5 6.25 7.5H23.75C24.5 7.5 25 8 25 8.75V18.75C25 19.5 24.5 20 23.75 20H6.25C5.5 20 5 19.5 5 18.75V8.75ZM27.5 23.125C27.5 23.5 27.25 23.75 26.875 23.75H3.125C2.75 23.75 2.5 23.5 2.5 23.125C2.5 22.75 2.75 22.5 3.125 22.5H26.875C27.25 22.5 27.5 22.75 27.5 23.125Z" fill="#0278AB"/>
</svg>
