<svg width="30" height="30" viewBox="0 0 30 30" fill="none" xmlns="http://www.w3.org/2000/svg">
<path d="M25 5H5C3.625 5 2.5 6.125 2.5 7.5V18.75C2.5 20.125 3.625 21.25 5 21.25H14.375V23.75H11.25C10.875 23.75 10.625 24 10.625 24.375C10.625 24.75 10.875 25 11.25 25H18.75C19.125 25 19.375 24.75 19.375 24.375C19.375 24 19.125 23.75 18.75 23.75H15.625V21.25H25C26.375 21.25 27.5 20.125 27.5 18.75V7.5C27.5 6.125 26.375 5 25 5ZM26.25 18.75C26.25 19.5 25.75 20 25 20H5C4.25 20 3.75 19.5 3.75 18.75V7.5C3.75 6.75 4.25 6.25 5 6.25H25C25.75 6.25 26.25 6.75 26.25 7.5V18.75Z" fill="#0278AB"/>
</svg>
