<svg width="24" height="24" viewBox="0 0 24 24" fill="none" xmlns="http://www.w3.org/2000/svg">
<path fill-rule="evenodd" clip-rule="evenodd" d="M12 22.7999C17.9647 22.7999 22.7999 17.9647 22.7999 12C22.7999 6.03528 17.9647 1.19995 12 1.19995C6.03528 1.19995 1.19995 6.03528 1.19995 12C1.19995 14.2656 1.89754 16.3681 3.08964 18.1047C3.09396 18.5445 2.96448 19.0351 2.85774 19.4394C2.82154 19.5765 2.78794 19.7038 2.76307 19.8158C2.7274 19.9765 2.65133 20.1937 2.56643 20.4362C2.31348 21.1583 1.98223 22.1043 2.40781 22.4447C3.11834 23.0132 3.75781 22.6579 3.75781 22.6579C3.75781 22.6579 5.32101 21.8053 5.74734 21.521C5.94516 21.3891 6.20419 21.3032 6.46763 21.2773C8.08569 22.2442 9.97793 22.7999 12 22.7999Z" fill="#FAFAFA"/>
<path d="M18.0581 16.5922C17.9919 16.6576 17.8959 16.748 17.7703 16.8552C17.5192 17.0696 17.1488 17.3525 16.66 17.6389C15.6812 18.2124 14.2276 18.7997 12.3142 18.8778C10.3777 18.9569 8.8095 18.363 7.73058 17.7542C7.19086 17.4496 6.77033 17.1396 6.48268 16.9038C6.33869 16.7857 6.22749 16.6858 6.15078 16.6138L6.02591 16.4916C5.82029 16.2756 5.82801 15.933 6.04403 15.7274C6.25976 15.5221 6.58653 15.5122 6.79224 15.7274L7.16748 16.0686C7.41559 16.2721 7.78487 16.5448 8.26134 16.8136C9.21481 17.3516 10.5845 17.8676 12.2701 17.7987C13.9787 17.7289 15.2618 17.2064 16.1141 16.707C16.5409 16.457 16.8597 16.2126 17.0689 16.0339L17.2841 15.8323L17.4544 15.677C17.5483 15.6107 17.6592 15.5776 17.7703 15.5786C17.8968 15.5797 18.0235 15.625 18.1253 15.7159C18.2298 15.8093 18.2894 15.9343 18.3026 16.0635C18.3175 16.2093 18.2734 16.3605 18.1681 16.4784L18.0581 16.5922Z" fill="black" stroke="black" stroke-linecap="round" stroke-linejoin="round"/>
</svg>
